# Blender v2.90.1 OBJ File: 'alpha_test_scene.blend'
# www.blender.org
mtllib alpha_test_scene.mtl
o Plane.001
v 0.000000 2.597784 1.000000
v 0.000000 0.860000 0.000000
v 0.000000 2.597784 -1.000000
vt 0.000000 0.000000
vt 1.000000 1.000000
vt 0.000000 1.000000
vn 1.0000 -0.0000 0.0000
usemtl Material.001
s off
f 1/1/1 2/2/1 3/3/1
o Plane.002_Plane.005
v 0.750000 3.027784 1.750000
v 0.750000 1.290000 0.750000
v 0.750000 3.027784 -0.250000
vt 0.000000 0.000000
vt 1.000000 1.000000
vt 0.000000 1.000000
vn 1.0000 -0.0000 0.0000
usemtl Material.002
s off
f 4/4/2 5/5/2 6/6/2
o Plane.003_Plane.006
v 1.000000 1.737784 1.000000
v 1.000000 0.000000 0.000000
v 1.000000 1.737784 0.000000
vt 0.000000 0.000000
vt 0.000000 0.000000
vt 0.000000 0.000000
vn -1.0000 0.0000 0.0000
usemtl Material.003
s off
f 9/7/3 8/8/3 7/9/3
o Plane.004_Plane.007
v 0.500000 3.027784 0.250000
v 0.500000 1.290000 -0.750000
v 0.500000 3.027784 -1.750000
vt 0.000000 0.000000
vt 1.000000 1.000000
vt 0.000000 1.000000
vn 1.0000 -0.0000 0.0000
usemtl Material.004
s off
f 10/10/4 11/11/4 12/12/4
o Plane.005_Plane.008
v 1.250000 2.597784 1.000000
v 1.250000 0.860000 0.000000
v 1.250000 2.597784 -1.000000
vt 0.000000 0.000000
vt 1.000000 1.000000
vt 0.000000 1.000000
vn 1.0000 -0.0000 0.0000
usemtl Material.005
s off
f 13/13/5 14/14/5 15/15/5
o Plane.006_Plane.002
v 0.250000 0.000000 0.000000
v 0.250000 1.737784 -1.000000
v 0.250000 1.737784 0.000000
vt 0.000000 0.000000
vt 0.000000 0.000000
vt 0.000000 0.000000
vn -1.0000 0.0000 0.0000
usemtl Material.006
s off
f 16/16/6 18/17/6 17/18/6
o Plane.007_Plane.003
v 0.990451 1.737784 1.004069
v 0.625000 0.000000 0.000000
v 0.259549 1.737784 -1.004069
vt 0.000000 0.000000
vt 1.000000 1.000000
vt 0.000000 1.000000
vn 0.9397 -0.0000 -0.3420
usemtl Material.007
s off
f 19/19/7 20/20/7 21/21/7
